<svg width="89" height="89" viewBox="0 0 89 89" fill="none" xmlns="http://www.w3.org/2000/svg">
<path d="M44.4043 88.8087C68.9282 88.8087 88.8087 68.9282 88.8087 44.4043C88.8087 19.8805 68.9282 0 44.4043 0C19.8805 0 0 19.8805 0 44.4043C0 68.9282 19.8805 88.8087 44.4043 88.8087Z" fill="black"/>
<path d="M30.2614 6.57611C18.1586 6.84336 2.66699 25.7096 2.66699 44.469C2.66699 67.4933 26.0015 90.3505 37.7672 78.9485C37.7976 79.1293 37.838 79.309 37.8906 79.5623C37.9457 79.8281 38.0121 80.1707 38.2829 80.6511C38.5538 81.1315 39.0294 81.7495 39.751 82.1289C40.4725 82.5083 41.4401 82.6488 42.4931 82.7375C43.5461 82.8263 44.6843 82.863 45.6086 82.866C46.533 82.8691 47.2431 82.8385 47.8591 82.8018C48.4751 82.7651 48.9965 82.7224 49.3277 82.6704C49.6589 82.6184 49.7999 82.557 49.9536 82.3933C50.1073 82.2296 50.274 81.9639 50.0557 81.3871C49.8373 80.8104 49.234 79.9229 48.3909 78.8292C47.5478 77.7354 46.465 76.4351 45.5926 75.0292C44.7202 73.6233 44.0585 72.1118 43.7351 70.943C43.4116 69.7742 43.4262 68.9486 43.5658 68.1091C43.5787 68.0316 43.5974 67.9533 43.6123 67.8756C49.0947 49.678 47.1853 18.6955 37.867 9.59244C35.667 7.44325 33.0544 6.51445 30.2614 6.57611ZM27.8279 22.9726C29.4061 22.9377 30.8826 23.4625 32.1258 24.677C38.756 31.154 38.7561 57.2467 32.1258 63.8158C25.4955 70.3849 12.2357 57.4318 12.2357 44.3852C12.2357 33.7849 20.989 23.1236 27.8279 22.9726Z" fill="white"/>
<path d="M75.7587 16.1953C75.3916 15.7424 74.6573 14.8368 73.7792 13.9725C72.9011 13.1082 71.8792 12.2852 70.5973 11.385C69.3153 10.4849 67.7733 9.50771 66.369 8.79141C64.9646 8.07511 63.698 7.61978 62.2447 7.33323C60.7914 7.04667 59.1516 6.92893 57.6585 7.0252C56.1654 7.12147 54.8192 7.43174 53.679 8.13298C52.5387 8.83421 51.6044 9.92634 50.7967 11.6494C49.989 13.3724 49.3078 15.7261 48.9183 18.5491C48.5288 21.3721 48.4309 24.6641 48.5043 27.7359C48.5777 30.8077 48.8225 33.6591 49.2631 35.9538C49.7037 38.2485 50.34 39.9863 50.9581 41.2652C51.5761 42.5441 52.1758 43.364 52.9162 44.2023C53.6566 45.0406 54.5377 45.8973 55.5168 46.5826C56.4959 47.268 57.5728 47.782 58.7232 48.3327C59.8736 48.8834 61.0974 49.4708 62.517 50.1866C63.9367 50.9024 65.552 51.7464 66.6668 52.5297C67.7816 53.3129 68.3957 54.0353 68.7749 54.7716C69.154 55.5079 69.2981 56.258 69.3505 56.9674C69.4028 57.6769 69.3634 58.3456 69.2837 59.0434C69.2041 59.7413 69.0842 60.4682 68.8386 61.2513C68.5931 62.0345 68.2217 62.8739 67.7092 63.5686C67.1966 64.2632 66.5428 64.8131 65.9537 65.2865C65.3646 65.7598 64.8403 66.1567 64.0688 66.5234C63.2973 66.8901 62.2787 67.2268 61.2847 67.4676C60.2908 67.7084 59.3216 67.8534 58.3654 67.7054C57.4091 67.5574 56.4659 67.1165 55.7649 66.7528C55.064 66.389 54.6053 66.1026 54.1856 65.7993C53.7659 65.496 53.3852 65.1758 53.065 64.8902C52.7448 64.6046 52.4852 64.3537 52.2385 64.1893C51.9919 64.0248 51.7583 63.947 51.4943 63.9426C51.2304 63.9383 50.9362 64.0075 50.6289 64.2023C50.3217 64.397 50.0016 64.7171 49.6077 65.2753C49.2138 65.8335 48.7463 66.6296 48.3968 67.4863C48.0474 68.3431 47.8161 69.2603 47.8179 70.7629C47.8196 72.2654 48.0544 74.353 48.6197 76.0617C49.1849 77.7703 50.0805 79.0998 50.8766 79.9407C51.6728 80.7815 52.3695 81.1337 53.1401 81.4016C53.9107 81.6695 54.7551 81.8531 55.7285 81.9503C56.702 82.0476 57.8043 82.0587 59.2673 81.8078C60.7303 81.5569 62.5537 81.0441 64.1447 80.4818C65.7357 79.9194 67.0941 79.3075 68.3975 78.6161C69.7008 77.9246 70.9491 77.1536 72.1576 76.2112C73.3662 75.2689 74.5349 74.1553 75.5507 72.9926C76.5665 71.83 77.4292 70.6184 78.24 69.315C79.0508 68.0117 79.8096 66.6165 80.441 65.183C81.0725 63.7494 81.5766 62.2776 81.8504 60.8623C82.1243 59.447 82.1677 58.0884 82.0488 56.6562C81.93 55.224 81.6488 53.7183 80.965 52.1001C80.2813 50.4818 79.1951 48.7511 78.0115 47.3059C76.828 45.8607 75.5473 44.7012 74.1627 43.7406C72.7781 42.78 71.2897 42.0185 69.7926 41.27C68.2954 40.5214 66.7898 39.7859 65.4235 39.1898C64.0573 38.5938 62.8307 38.1373 61.7452 37.2936C60.6598 36.4498 59.7156 35.2189 59.0849 33.7899C58.4541 32.3609 58.1369 30.7341 58.0713 29.0769C58.0058 27.4197 58.1921 25.7323 58.5189 24.5337C58.8456 23.3352 59.3129 22.6256 59.9576 22.0674C60.6023 21.5092 61.4244 21.1025 62.4672 20.8386C63.51 20.5746 64.7734 20.4535 65.8566 20.5832C66.9398 20.713 67.8426 21.0936 68.5799 21.6777C69.3172 22.2619 69.8887 23.0494 70.0698 23.8045C70.2508 24.5595 70.0413 25.2818 70.6507 25.524C71.26 25.7662 72.6881 25.5282 73.5922 25.3386C74.4962 25.1491 74.8761 25.008 75.2737 24.7926C75.6714 24.5773 76.0868 24.2877 76.4804 23.8521C76.874 23.4166 77.2457 22.835 77.4528 22.1248C77.66 21.4146 77.7027 20.5757 77.6331 19.918C77.5636 19.2603 77.3818 18.7839 77.1119 18.2691C76.842 17.7543 76.484 17.2012 76.3049 16.9246C76.1259 16.6481 76.1259 16.6481 75.7587 16.1953Z" fill="white"/>
</svg>
