<svg width="191" height="89" viewBox="0 0 191 89" fill="none" xmlns="http://www.w3.org/2000/svg">
<path d="M44.4043 88.8087C68.9282 88.8087 88.8087 68.9282 88.8087 44.4043C88.8087 19.8805 68.9282 0 44.4043 0C19.8805 0 0 19.8805 0 44.4043C0 68.9282 19.8805 88.8087 44.4043 88.8087Z" fill="black"/>
<path d="M30.2614 6.57611C18.1586 6.84336 2.66699 25.7096 2.66699 44.469C2.66699 67.4933 26.0015 90.3505 37.7672 78.9485C37.7976 79.1293 37.838 79.309 37.8906 79.5623C37.9457 79.8281 38.0121 80.1707 38.2829 80.6511C38.5538 81.1315 39.0294 81.7495 39.751 82.1289C40.4725 82.5083 41.4401 82.6488 42.4931 82.7375C43.5461 82.8263 44.6843 82.863 45.6086 82.866C46.533 82.8691 47.2431 82.8385 47.8591 82.8018C48.4751 82.7651 48.9965 82.7224 49.3277 82.6704C49.6589 82.6184 49.7999 82.557 49.9536 82.3933C50.1073 82.2296 50.274 81.9639 50.0557 81.3871C49.8373 80.8104 49.234 79.9229 48.3909 78.8292C47.5478 77.7354 46.465 76.4351 45.5926 75.0292C44.7202 73.6233 44.0585 72.1118 43.7351 70.943C43.4116 69.7742 43.4262 68.9486 43.5658 68.1091C43.5787 68.0316 43.5974 67.9533 43.6123 67.8756C49.0947 49.678 47.1853 18.6955 37.867 9.59244C35.667 7.44325 33.0544 6.51445 30.2614 6.57611ZM27.8279 22.9726C29.4061 22.9377 30.8826 23.4625 32.1258 24.677C38.756 31.154 38.7561 57.2467 32.1258 63.8158C25.4955 70.3849 12.2357 57.4318 12.2357 44.3852C12.2357 33.7849 20.989 23.1236 27.8279 22.9726Z" fill="white"/>
<path d="M75.7587 16.1953C75.3916 15.7424 74.6573 14.8368 73.7792 13.9725C72.9011 13.1082 71.8792 12.2852 70.5973 11.385C69.3153 10.4849 67.7733 9.50771 66.369 8.79141C64.9646 8.07511 63.698 7.61978 62.2447 7.33323C60.7914 7.04667 59.1516 6.92893 57.6585 7.0252C56.1654 7.12147 54.8192 7.43174 53.679 8.13298C52.5387 8.83421 51.6044 9.92634 50.7967 11.6494C49.989 13.3724 49.3078 15.7261 48.9183 18.5491C48.5288 21.3721 48.4309 24.6641 48.5043 27.7359C48.5777 30.8077 48.8225 33.6591 49.2631 35.9538C49.7037 38.2485 50.34 39.9863 50.9581 41.2652C51.5761 42.5441 52.1758 43.364 52.9162 44.2023C53.6566 45.0406 54.5377 45.8973 55.5168 46.5826C56.4959 47.268 57.5728 47.782 58.7232 48.3327C59.8736 48.8834 61.0974 49.4708 62.517 50.1866C63.9367 50.9024 65.552 51.7464 66.6668 52.5297C67.7816 53.3129 68.3957 54.0353 68.7749 54.7716C69.154 55.5079 69.2981 56.258 69.3505 56.9674C69.4028 57.6769 69.3634 58.3456 69.2837 59.0434C69.2041 59.7413 69.0842 60.4682 68.8386 61.2513C68.5931 62.0345 68.2217 62.8739 67.7092 63.5686C67.1966 64.2632 66.5428 64.8131 65.9537 65.2865C65.3646 65.7598 64.8403 66.1567 64.0688 66.5234C63.2973 66.8901 62.2787 67.2268 61.2847 67.4676C60.2908 67.7084 59.3216 67.8534 58.3654 67.7054C57.4091 67.5574 56.4659 67.1165 55.7649 66.7528C55.064 66.389 54.6053 66.1026 54.1856 65.7993C53.7659 65.496 53.3852 65.1758 53.065 64.8902C52.7448 64.6046 52.4852 64.3537 52.2385 64.1893C51.9919 64.0248 51.7583 63.947 51.4943 63.9426C51.2304 63.9383 50.9362 64.0075 50.6289 64.2023C50.3217 64.397 50.0016 64.7171 49.6077 65.2753C49.2138 65.8335 48.7463 66.6296 48.3968 67.4863C48.0474 68.3431 47.8161 69.2603 47.8179 70.7629C47.8196 72.2654 48.0544 74.353 48.6197 76.0617C49.1849 77.7703 50.0805 79.0998 50.8766 79.9407C51.6728 80.7815 52.3695 81.1337 53.1401 81.4016C53.9107 81.6695 54.7551 81.8531 55.7285 81.9503C56.702 82.0476 57.8043 82.0587 59.2673 81.8078C60.7303 81.5569 62.5537 81.0441 64.1447 80.4818C65.7357 79.9194 67.0941 79.3075 68.3975 78.6161C69.7008 77.9246 70.9491 77.1536 72.1576 76.2112C73.3662 75.2689 74.5349 74.1553 75.5507 72.9926C76.5665 71.83 77.4292 70.6184 78.24 69.315C79.0508 68.0117 79.8096 66.6165 80.441 65.183C81.0725 63.7494 81.5766 62.2776 81.8504 60.8623C82.1243 59.447 82.1677 58.0884 82.0488 56.6562C81.93 55.224 81.6488 53.7183 80.965 52.1001C80.2813 50.4818 79.1951 48.7511 78.0115 47.3059C76.828 45.8607 75.5473 44.7012 74.1627 43.7406C72.7781 42.78 71.2897 42.0185 69.7926 41.27C68.2954 40.5214 66.7898 39.7859 65.4235 39.1898C64.0573 38.5938 62.8307 38.1373 61.7452 37.2936C60.6598 36.4498 59.7156 35.2189 59.0849 33.7899C58.4541 32.3609 58.1369 30.7341 58.0713 29.0769C58.0058 27.4197 58.1921 25.7323 58.5189 24.5337C58.8456 23.3352 59.3129 22.6256 59.9576 22.0674C60.6023 21.5092 61.4244 21.1025 62.4672 20.8386C63.51 20.5746 64.7734 20.4535 65.8566 20.5832C66.9398 20.713 67.8426 21.0936 68.5799 21.6777C69.3172 22.2619 69.8887 23.0494 70.0698 23.8045C70.2508 24.5595 70.0413 25.2818 70.6507 25.524C71.26 25.7662 72.6881 25.5282 73.5922 25.3386C74.4962 25.1491 74.8761 25.008 75.2737 24.7926C75.6714 24.5773 76.0868 24.2877 76.4804 23.8521C76.874 23.4166 77.2457 22.835 77.4528 22.1248C77.66 21.4146 77.7027 20.5757 77.6331 19.918C77.5636 19.2603 77.3818 18.7839 77.1119 18.2691C76.842 17.7543 76.484 17.2012 76.3049 16.9246C76.1259 16.6481 76.1259 16.6481 75.7587 16.1953Z" fill="white"/>
<path d="M121.456 32.6414L125.215 37.5024H120.34L118.431 35.0499C116.854 35.9114 115.097 36.3422 113.158 36.3422C109.918 36.3422 107.225 35.2261 105.081 32.9938C102.937 30.7518 101.865 28.0839 101.865 24.9901C101.865 22.9243 102.364 21.0298 103.363 19.3067C104.362 17.5737 105.732 16.1982 107.475 15.18C109.227 14.1617 111.107 13.6526 113.114 13.6526C116.179 13.6526 118.807 14.759 121.001 16.9716C123.203 19.1843 124.305 21.8816 124.305 25.0635C124.305 27.9909 123.355 30.5168 121.456 32.6414ZM118.886 29.3224C119.757 28.03 120.193 26.6006 120.193 25.0341C120.193 22.9879 119.503 21.2501 118.122 19.8207C116.742 18.3912 115.072 17.6765 113.114 17.6765C111.097 17.6765 109.409 18.3717 108.048 19.7619C106.687 21.1522 106.006 22.9194 106.006 25.0635C106.006 27.4524 106.863 29.342 108.576 30.7322C109.918 31.819 111.44 32.3623 113.144 32.3623C114.123 32.3623 115.043 32.1714 115.905 31.7896L112.042 26.8111H116.947L118.886 29.3224ZM139.549 19.8207H143.543V35.7988H139.549V34.11C138.765 34.854 137.977 35.3925 137.184 35.7254C136.401 36.0485 135.549 36.21 134.629 36.21C132.563 36.21 130.776 35.4121 129.269 33.8162C127.761 32.2106 127.007 30.2182 127.007 27.8391C127.007 25.3719 127.736 23.3502 129.195 21.7739C130.654 20.1976 132.426 19.4095 134.511 19.4095C135.471 19.4095 136.372 19.5906 137.214 19.9528C138.056 20.3151 138.834 20.8585 139.549 21.583V19.8207ZM135.334 23.1103C134.09 23.1103 133.058 23.5509 132.235 24.432C131.413 25.3034 131.002 26.4244 131.002 27.7951C131.002 29.1755 131.418 30.3112 132.25 31.2022C133.092 32.0931 134.125 32.5386 135.349 32.5386C136.612 32.5386 137.659 32.1029 138.491 31.2315C139.324 30.3504 139.74 29.2 139.74 27.7804C139.74 26.3901 139.324 25.2642 138.491 24.4026C137.659 23.5411 136.607 23.1103 135.334 23.1103ZM149.168 13.2414C149.873 13.2414 150.475 13.496 150.974 14.0051C151.483 14.5142 151.738 15.131 151.738 15.8555C151.738 16.5702 151.488 17.1821 150.989 17.6912C150.49 18.1905 149.892 18.4402 149.197 18.4402C148.483 18.4402 147.871 18.1856 147.362 17.6765C146.862 17.1576 146.613 16.531 146.613 15.7968C146.613 15.0918 146.862 14.4897 147.362 13.9904C147.861 13.4911 148.463 13.2414 149.168 13.2414ZM147.156 19.8207H151.18V35.7988H147.156V19.8207ZM157.245 21.0543H154.954L154.146 13.6526H158.053L157.245 21.0543ZM171.241 22.0529L168.759 24.5348C167.75 23.5362 166.835 23.0369 166.013 23.0369C165.562 23.0369 165.21 23.1348 164.955 23.3306C164.701 23.5166 164.573 23.7516 164.573 24.0355C164.573 24.2509 164.652 24.4516 164.808 24.6376C164.975 24.8138 165.376 25.0586 166.013 25.3719L167.481 26.1062C169.028 26.8699 170.09 27.6482 170.668 28.4412C171.246 29.2343 171.534 30.1644 171.534 31.2315C171.534 32.6512 171.011 33.8358 169.963 34.7855C168.925 35.7352 167.53 36.21 165.778 36.21C163.447 36.21 161.587 35.2995 160.197 33.4785L162.664 30.791C163.134 31.3392 163.682 31.7847 164.309 32.1274C164.945 32.4603 165.508 32.6267 165.998 32.6267C166.527 32.6267 166.952 32.4994 167.276 32.2449C167.599 31.9903 167.76 31.6966 167.76 31.3637C167.76 30.7469 167.178 30.1448 166.013 29.5574L164.661 28.8818C162.077 27.5797 160.784 25.9495 160.784 23.9914C160.784 22.7285 161.269 21.6515 162.238 20.7606C163.217 19.8598 164.466 19.4095 165.983 19.4095C167.021 19.4095 167.995 19.6395 168.906 20.0997C169.826 20.5501 170.604 21.2011 171.241 22.0529Z" fill="black"/>
<path d="M114.248 47.6088L111.208 50.2963C110.141 48.8081 109.054 48.064 107.948 48.064C107.409 48.064 106.969 48.2109 106.626 48.5046C106.283 48.7885 106.112 49.1116 106.112 49.4738C106.112 49.8361 106.234 50.1788 106.479 50.5019C106.812 50.9326 107.816 51.8578 109.49 53.2775C111.056 54.5894 112.006 55.4167 112.339 55.7594C113.171 56.6014 113.758 57.4091 114.101 58.1825C114.454 58.9462 114.63 59.7833 114.63 60.6938C114.63 62.4659 114.018 63.9296 112.794 65.0849C111.57 66.2401 109.974 66.8178 108.007 66.8178C106.469 66.8178 105.128 66.4409 103.983 65.687C102.847 64.9331 101.873 63.7485 101.06 62.133L104.511 60.0476C105.549 61.9568 106.744 62.9114 108.095 62.9114C108.8 62.9114 109.392 62.7058 109.872 62.2946C110.351 61.8834 110.591 61.4085 110.591 60.87C110.591 60.3805 110.41 59.891 110.048 59.4015C109.686 58.9119 108.888 58.163 107.654 57.1545C105.304 55.2356 103.787 53.7572 103.101 52.7194C102.416 51.6718 102.073 50.6291 102.073 49.5913C102.073 48.0934 102.641 46.8108 103.777 45.7437C104.922 44.6667 106.332 44.1282 108.007 44.1282C109.083 44.1282 110.107 44.3779 111.076 44.8772C112.055 45.3765 113.112 46.287 114.248 47.6088ZM118.624 44.4072H122.619V50.2963H124.998V53.7474H122.619V66.2744H118.624V53.7474H116.568V50.2963H118.624V44.4072ZM127.142 50.2963H131.195V57.9916C131.195 59.4896 131.298 60.5323 131.504 61.1197C131.709 61.6973 132.037 62.1477 132.488 62.4708C132.948 62.7939 133.511 62.9554 134.177 62.9554C134.842 62.9554 135.405 62.7988 135.865 62.4855C136.335 62.1624 136.683 61.6924 136.908 61.0756C137.075 60.6155 137.158 59.6315 137.158 58.1238V50.2963H141.182V57.0664C141.182 59.8567 140.961 61.7659 140.521 62.7939C139.982 64.0471 139.189 65.0114 138.142 65.687C137.094 66.3527 135.763 66.6856 134.147 66.6856C132.395 66.6856 130.975 66.294 129.888 65.5108C128.811 64.7275 128.053 63.6359 127.612 62.2358C127.299 61.2666 127.142 59.5043 127.142 56.9489V50.2963ZM157.028 44.1282H161.022V66.2744H157.028V64.5855C156.245 65.3296 155.456 65.8681 154.663 66.201C153.88 66.5241 153.028 66.6856 152.108 66.6856C150.042 66.6856 148.255 65.8877 146.748 64.2918C145.24 62.6862 144.486 60.6938 144.486 58.3147C144.486 55.8475 145.215 53.8257 146.674 52.2495C148.133 50.6732 149.905 49.8851 151.991 49.8851C152.95 49.8851 153.851 50.0662 154.693 50.4284C155.535 50.7907 156.313 51.3341 157.028 52.0586V44.1282ZM152.813 53.5859C151.57 53.5859 150.537 54.0264 149.714 54.9076C148.892 55.779 148.481 56.9 148.481 58.2706C148.481 59.6511 148.897 60.7868 149.729 61.6778C150.571 62.5687 151.604 63.0142 152.828 63.0142C154.091 63.0142 155.138 62.5785 155.97 61.7071C156.803 60.826 157.219 59.6756 157.219 58.256C157.219 56.8657 156.803 55.7398 155.97 54.8782C155.138 54.0167 154.086 53.5859 152.813 53.5859ZM166.647 43.717C167.352 43.717 167.954 43.9716 168.453 44.4807C168.962 44.9898 169.217 45.6066 169.217 46.3311C169.217 47.0458 168.967 47.6577 168.468 48.1668C167.969 48.6661 167.371 48.9158 166.676 48.9158C165.962 48.9158 165.35 48.6612 164.841 48.1521C164.341 47.6332 164.092 47.0066 164.092 46.2723C164.092 45.5674 164.341 44.9653 164.841 44.466C165.34 43.9667 165.942 43.717 166.647 43.717ZM164.635 50.2963H168.659V66.2744H164.635V50.2963ZM179.805 49.8851C181.313 49.8851 182.728 50.262 184.05 51.0159C185.381 51.7697 186.419 52.7928 187.163 54.0852C187.907 55.3775 188.279 56.7727 188.279 58.2706C188.279 59.7784 187.902 61.1882 187.148 62.5002C186.404 63.8121 185.386 64.8401 184.094 65.5842C182.801 66.3185 181.377 66.6856 179.82 66.6856C177.529 66.6856 175.571 65.873 173.946 64.2478C172.33 62.6128 171.523 60.6302 171.523 58.3C171.523 55.8034 172.438 53.7229 174.269 52.0586C175.875 50.6096 177.72 49.8851 179.805 49.8851ZM179.864 53.6593C178.621 53.6593 177.583 54.095 176.751 54.9663C175.928 55.8279 175.517 56.9342 175.517 58.2853C175.517 59.6756 175.923 60.8015 176.736 61.6631C177.559 62.5246 178.596 62.9554 179.849 62.9554C181.103 62.9554 182.145 62.5197 182.978 61.6484C183.81 60.777 184.226 59.656 184.226 58.2853C184.226 56.9147 183.815 55.8034 182.992 54.9517C182.18 54.0901 181.137 53.6593 179.864 53.6593Z" fill="black"/>
</svg>
